<svg width="543" height="538" viewBox="0 0 543 538" fill="none" xmlns="http://www.w3.org/2000/svg">
<path d="M228.881 435.192H231.737L234.207 440.976L234.726 442.408H234.893L235.402 440.976L237.872 435.192H240.729V449H238.575V441.397L238.804 437.882H238.707L235.297 445.651H234.312L230.806 437.882H230.709L231.034 441.397V449H228.881V435.192ZM245.93 435.192H253.19V436.933H248.084V440.747H251.977V442.479H248.084V447.225H253.542V449H245.93V435.192ZM257.513 435.192C257.706 435.192 257.917 435.189 258.146 435.184C258.38 435.178 258.617 435.172 258.858 435.166C259.104 435.16 259.341 435.154 259.569 435.148C259.798 435.143 260.006 435.14 260.193 435.14C261.442 435.14 262.487 435.286 263.331 435.579C264.181 435.872 264.863 436.303 265.379 436.871C265.901 437.439 266.273 438.146 266.495 438.989C266.724 439.827 266.838 440.794 266.838 441.89C266.838 443.038 266.715 444.058 266.469 444.948C266.229 445.839 265.836 446.589 265.291 447.198C264.752 447.808 264.046 448.271 263.173 448.587C262.3 448.903 261.236 449.062 259.983 449.062C259.561 449.062 259.156 449.05 258.77 449.026C258.383 449.009 257.964 449 257.513 449V435.192ZM259.666 447.269C259.777 447.28 259.883 447.289 259.983 447.295C260.088 447.295 260.214 447.295 260.36 447.295C261.163 447.295 261.837 447.192 262.382 446.987C262.933 446.776 263.375 446.454 263.709 446.021C264.043 445.587 264.283 445.036 264.43 444.368C264.576 443.694 264.65 442.892 264.65 441.96C264.65 441.04 264.576 440.261 264.43 439.622C264.283 438.978 264.04 438.453 263.7 438.049C263.366 437.645 262.918 437.352 262.356 437.17C261.799 436.988 261.108 436.897 260.281 436.897C260.147 436.897 260.032 436.9 259.939 436.906C259.851 436.906 259.76 436.909 259.666 436.915V447.269ZM270.906 435.192H273.059V447.225H277.287V449H270.906V435.192ZM280.933 435.192H283.086V449H280.933V435.192ZM288.147 435.192H289.958L294.871 443.946L295.469 445.546H295.574L295.337 442.83V435.192H297.49V449H295.697L290.679 440.272L290.178 439.077H290.072L290.301 442.294V449H288.147V435.192ZM302.701 435.192H309.96V436.933H304.854V440.747H308.747V442.479H304.854V447.225H310.312V449H302.701V435.192Z" fill="white"/>
<rect x="2.08172" width="27.204" height="27.204" transform="matrix(0.693907 -0.720065 0.693907 0.720065 249.954 380.477)" stroke="#FAFAFF" stroke-width="3"/>
<path d="M275 367.5C275 376.06 268.06 383 259.5 383C250.94 383 244 376.06 244 367.5C244 358.94 250.94 352 259.5 352C268.06 352 275 358.94 275 367.5ZM247.092 367.5C247.092 374.353 252.647 379.908 259.5 379.908C266.353 379.908 271.908 374.353 271.908 367.5C271.908 360.647 266.353 355.092 259.5 355.092C252.647 355.092 247.092 360.647 247.092 367.5Z" fill="#FAFAFA"/>
<path d="M296 367.5C296 376.06 289.284 383 281 383C272.716 383 266 376.06 266 367.5C266 358.94 272.716 352 281 352C289.284 352 296 358.94 296 367.5ZM268.992 367.5C268.992 374.353 274.368 379.908 281 379.908C287.632 379.908 293.008 374.353 293.008 367.5C293.008 360.647 287.632 355.092 281 355.092C274.368 355.092 268.992 360.647 268.992 367.5Z" fill="#FAFAFA"/>
<rect x="201.5" y="266.5" width="137" height="268" rx="34.5" stroke="#FAFAFA" stroke-width="7"/>
<line x1="201.292" y1="298.431" x2="337.07" y2="298.431" stroke="#FAFAFA" stroke-width="5"/>
<line x1="201.292" y1="505.328" x2="337.07" y2="505.328" stroke="#FAFAFA" stroke-width="5"/>
<rect x="3.43012" y="142.067" width="71.1886" height="96.0813" rx="4.5" transform="rotate(-30.9735 3.43012 142.067)" stroke="#FAFAFA" stroke-width="5"/>
<line x1="37.5508" y1="137.303" x2="62.8807" y2="122.099" stroke="#FAFAFA" stroke-width="2"/>
<line x1="26.0347" y1="160.414" x2="70.0943" y2="133.968" stroke="#FAFAFA" stroke-width="2"/>
<line x1="32.7857" y1="171.661" x2="76.8453" y2="145.215" stroke="#FAFAFA" stroke-width="2"/>
<line x1="39.9336" y1="183.57" x2="83.9933" y2="157.124" stroke="#FAFAFA" stroke-width="2"/>
<line x1="47.0811" y1="195.478" x2="91.1407" y2="169.032" stroke="#FAFAFA" stroke-width="2"/>
<line x1="53.832" y1="206.725" x2="97.8917" y2="180.279" stroke="#FAFAFA" stroke-width="2"/>
<rect x="485.608" y="78.5271" width="71.1886" height="96.0813" rx="4.5" transform="rotate(41.0361 485.608 78.5271)" stroke="#FAFAFA" stroke-width="5"/>
<line x1="500.677" y1="109.508" x2="522.961" y2="128.904" stroke="#FAFAFA" stroke-width="2"/>
<line x1="475.139" y1="105.693" x2="513.9" y2="139.431" stroke="#FAFAFA" stroke-width="2"/>
<line x1="466.527" y1="115.588" x2="505.288" y2="149.325" stroke="#FAFAFA" stroke-width="2"/>
<line x1="457.408" y1="126.064" x2="496.169" y2="159.802" stroke="#FAFAFA" stroke-width="2"/>
<line x1="448.289" y1="136.541" x2="487.051" y2="170.278" stroke="#FAFAFA" stroke-width="2"/>
<line x1="439.678" y1="146.435" x2="478.439" y2="180.172" stroke="#FAFAFA" stroke-width="2"/>
<rect x="228.68" y="8.01085" width="71.1886" height="96.0813" rx="4.5" transform="rotate(-4.29447 228.68 8.01085)" stroke="#FAFAFA" stroke-width="5"/>
<line x1="261.307" y1="19.0741" x2="290.767" y2="16.8619" stroke="#FAFAFA" stroke-width="2"/>
<line x1="240.64" y1="34.5543" x2="291.883" y2="30.7063" stroke="#FAFAFA" stroke-width="2"/>
<line x1="241.622" y1="47.6349" x2="292.865" y2="43.7869" stroke="#FAFAFA" stroke-width="2"/>
<line x1="242.663" y1="61.485" x2="293.906" y2="57.637" stroke="#FAFAFA" stroke-width="2"/>
<line x1="243.703" y1="75.3348" x2="294.946" y2="71.4868" stroke="#FAFAFA" stroke-width="2"/>
<line x1="244.685" y1="88.4156" x2="295.928" y2="84.5676" stroke="#FAFAFA" stroke-width="2"/>
<path d="M360 224.5C373.5 220.5 419.5 207 424.556 190.911" stroke="#FAFAFA" stroke-width="3" stroke-linecap="round"/>
<path d="M372 203.451C378.015 201.411 398.51 194.519 400.96 186.981" stroke="#FAFAFA" stroke-width="3" stroke-linecap="round"/>
<path d="M142.592 177.5C171.5 177.5 209.771 214.722 208.5 217.5" stroke="#FAFAFA" stroke-width="3" stroke-linecap="round"/>
<path d="M147 201C164.098 201 186.733 219.611 185.982 221" stroke="#FAFAFA" stroke-width="3" stroke-linecap="round"/>
<path d="M287.996 131C290.996 143.5 273.733 206.375 274.003 212" stroke="#FAFAFA" stroke-width="3" stroke-linecap="round"/>
<path d="M267.72 138C269.406 147.657 262.935 197.423 263 201" stroke="#FAFAFA" stroke-width="3" stroke-linecap="round"/>
</svg>
