<svg width="46" height="40" viewBox="0 0 46 40" fill="none" xmlns="http://www.w3.org/2000/svg">
<rect x="2.16096" width="22.7392" height="22.7392" transform="matrix(0.72032 -0.693642 0.72032 0.693642 5.30769 23.6452)" stroke="#FAFAFA" stroke-width="3"/>
<path d="M27.0588 12.8889C27.0588 20.0072 21.0015 25.7778 13.5294 25.7778C6.05732 25.7778 0 20.0072 0 12.8889C0 5.77056 6.05732 0 13.5294 0C21.0015 0 27.0588 5.77056 27.0588 12.8889ZM2.69893 12.8889C2.69893 18.5872 7.5479 23.2067 13.5294 23.2067C19.5109 23.2067 24.3599 18.5872 24.3599 12.8889C24.3599 7.19057 19.5109 2.57115 13.5294 2.57115C7.5479 2.57115 2.69893 7.19057 2.69893 12.8889Z" fill="#FAFAFA"/>
<path d="M46 12.8889C46 20.0072 40.1446 25.7778 32.9216 25.7778C25.6986 25.7778 19.8431 20.0072 19.8431 12.8889C19.8431 5.77056 25.6986 0 32.9216 0C40.1446 0 46 5.77056 46 12.8889ZM22.4521 12.8889C22.4521 18.5872 27.1394 23.2067 32.9216 23.2067C38.7037 23.2067 43.391 18.5872 43.391 12.8889C43.391 7.19057 38.7037 2.57115 32.9216 2.57115C27.1394 2.57115 22.4521 7.19057 22.4521 12.8889Z" fill="#FAFAFA"/>
</svg>
