<svg width="50" height="47" viewBox="0 0 50 47" fill="none" xmlns="http://www.w3.org/2000/svg">
<rect x="2.07832" width="26.0898" height="26.0898" transform="matrix(0.692775 -0.721154 0.692775 0.721154 5.75082 27.5206)" stroke="#193E5E" stroke-width="3"/>
<path d="M29.4118 15.1445C29.4118 23.5085 22.8277 30.2889 14.7059 30.2889C6.58405 30.2889 0 23.5085 0 15.1445C0 6.78041 6.58405 0 14.7059 0C22.8277 0 29.4118 6.78041 29.4118 15.1445ZM2.93361 15.1445C2.93361 21.84 8.20424 27.2678 14.7059 27.2678C21.2075 27.2678 26.4782 21.84 26.4782 15.1445C26.4782 8.44892 21.2075 3.0211 14.7059 3.0211C8.20424 3.0211 2.93361 8.44892 2.93361 15.1445Z" fill="#193E5E"/>
<path d="M50 15.1445C50 23.5085 43.6354 30.2889 35.7843 30.2889C27.9332 30.2889 21.5686 23.5085 21.5686 15.1445C21.5686 6.78041 27.9332 0 35.7843 0C43.6354 0 50 6.78041 50 15.1445ZM24.4044 15.1445C24.4044 21.84 29.4994 27.2678 35.7843 27.2678C42.0692 27.2678 47.1641 21.84 47.1641 15.1445C47.1641 8.44892 42.0692 3.0211 35.7843 3.0211C29.4994 3.0211 24.4044 8.44892 24.4044 15.1445Z" fill="#193E5E"/>
</svg>
